<svg id="Layer_1" data-name="Layer 1" xmlns="http://www.w3.org/2000/svg" viewBox="0 0 153.6 68"><title>LibLogo</title><path d="M40,81.57a2,2,0,0,1-1.78-1.1C32.59,69.22,12.91,73,12.71,73a2,2,0,0,1-.78-3.92,47.43,47.43,0,0,1,12-.56c7.24.63,12.72,3.15,16.06,7.34,3.34-4.19,8.82-6.71,16.06-7.34a47.43,47.43,0,0,1,12,.56A2,2,0,1,1,67.29,73c-.2,0-19.88-3.8-25.5,7.45A2,2,0,0,1,40,81.57Z" transform="translate(-5.93 -24.35)" style="fill:#e2dff4"/><path d="M41.79,80.47C47.41,69.22,67.09,73,67.29,73a2,2,0,1,0,.78-3.92,47.43,47.43,0,0,0-12-.56c-7.24.63-12.72,3.15-16.06,7.34v5.69a2,2,0,0,0,1.79-1.1Z" transform="translate(-5.93 -24.35)" style="fill:#bebcdd"/><path d="M70.68,81.22a2,2,0,0,0-1-1.28c-.76-.4-18.12-9.44-29.68-2.73-11.55-6.71-28.92,2.33-29.68,2.73a2,2,0,0,0-1,1.28L7.53,88.4l2.12,1.5L31.8,84.15s8.51,12.87,16.08,0l24.6,6.34.08-2.07Z" transform="translate(-5.93 -24.35)" style="fill:#f9f9f9"/><path d="M72.48,88.4l-1.8-7.18a2,2,0,0,0-1-1.28c-.76-.4-18.12-9.44-29.68-2.73V91.42a10.72,10.72,0,0,0,9.3-5.86l22.28,6.07,1-3.21Z" transform="translate(-5.93 -24.35)" style="fill:#e2dff4"/><path d="M72.07,92.35a2.05,2.05,0,0,1-.49-.06L49.3,86.63a10.53,10.53,0,0,1-18.6,0L8.42,92.29a2,2,0,0,1-1-3.87l23.94-6.09a2,2,0,0,1,2.4,1.34,6.52,6.52,0,0,0,12.44,0,2,2,0,0,1,2.4-1.34l23.94,6.09a2,2,0,0,1-.49,3.93Z" transform="translate(-5.93 -24.35)" style="fill:#bc8173"/><path d="M49.3,86.63l22.28,5.66a2.05,2.05,0,0,0,.49.06,2,2,0,0,0,.49-3.93L48.62,82.33a2,2,0,0,0-2.4,1.34A6.49,6.49,0,0,1,40,88.23v4a10.49,10.49,0,0,0,9.3-5.59Z" transform="translate(-5.93 -24.35)" style="fill:#865240"/><path d="M70.34,29.14H68.61V27.41a2,2,0,0,0-4,0v1.73H62.89a2,2,0,1,0,0,4h1.73v1.73a2,2,0,1,0,4,0V33.13h1.73a2,2,0,1,0,0-4Z" transform="translate(-5.93 -24.35)" style="fill:#31bebe"/><path d="M50.65,63.48a2,2,0,0,1-1.85-1.23,2,2,0,0,1,1.08-2.61l12.77-5.33A2,2,0,0,1,64.19,58L51.41,63.32A1.89,1.89,0,0,1,50.65,63.48Z" transform="translate(-5.93 -24.35)" style="fill:#fabe2c"/><path d="M44.26,61.35a1.82,1.82,0,0,1-.46-.06,2,2,0,0,1-1.48-2.4l5.32-22.36a2,2,0,1,1,3.88.93L46.2,59.81A2,2,0,0,1,44.26,61.35Z" transform="translate(-5.93 -24.35)" style="fill:#fabe2c"/><path d="M35.74,61.35a2,2,0,0,1-2-1.72l-2.13-14.9a2,2,0,0,1,4-.57l2.13,14.91A2,2,0,0,1,36,61.33Z" transform="translate(-5.93 -24.35)" style="fill:#fed843"/><path d="M27.23,63.48a2,2,0,0,1-1.42-.59L13,50.12a2,2,0,1,1,2.82-2.83L28.64,60.07a2,2,0,0,1-1.41,3.41Z" transform="translate(-5.93 -24.35)" style="fill:#fed843"/><circle cx="3.19" cy="36.06" r="2" style="fill:#5ed8d3"/><circle cx="34.07" cy="8.38" r="2" style="fill:#fed843"/><circle cx="52.17" cy="20.09" r="2" style="fill:#ad77e3"/><path d="M42,32.74a2,2,0,0,0-2-2v4A2,2,0,0,0,42,32.74Z" transform="translate(-5.93 -24.35)" style="fill:#fabe2c"/><path d="M12.32,36.86a6.26,6.26,0,1,1,6.26-6.25A6.26,6.26,0,0,1,12.32,36.86Z" transform="translate(-5.93 -24.35)" style="fill:#f66"/><text transform="translate(68.57 39.8)" style="font-size:20px;fill:#1e92d8;font-family:Algerian, Algerian">Library</text></svg>